<svg width="1280" height="640" viewBox="0 0 1280 640" fill="none" xmlns="http://www.w3.org/2000/svg" role="img" aria-labelledby="title desc">
  <title id="title">Verona banner</title>
  <desc id="desc">Banner graphic for the Verona IDE Support repository.</desc>
  <rect width="1280" height="640" rx="32" fill="#F8F4EA"/>
  <rect x="34" y="34" width="1212" height="572" rx="28" fill="url(#bg)"/>
  <circle cx="1085" cy="134" r="150" fill="#F6D28B" fill-opacity="0.55"/>
  <circle cx="178" cy="508" r="128" fill="#B9D7C0" fill-opacity="0.65"/>
  <rect x="92" y="116" width="502" height="408" rx="30" fill="#11243A"/>
  <rect x="628" y="116" width="560" height="408" rx="30" fill="#FFFDF8"/>
  <rect x="132" y="156" width="108" height="24" rx="12" fill="#D66A4D"/>
  <rect x="252" y="156" width="140" height="24" rx="12" fill="#3A7CA5"/>
  <rect x="132" y="220" width="322" height="24" rx="12" fill="#C6E7FF"/>
  <rect x="132" y="264" width="232" height="18" rx="9" fill="#6EC6A8"/>
  <rect x="132" y="302" width="372" height="18" rx="9" fill="#F7C873"/>
  <rect x="132" y="340" width="276" height="18" rx="9" fill="#C5A6FF"/>
  <rect x="132" y="378" width="334" height="18" rx="9" fill="#F29E9E"/>
  <rect x="132" y="430" width="198" height="40" rx="20" fill="#E8EEF7"/>
  <text x="656" y="192" fill="#D66A4D" font-family="Arial, sans-serif" font-size="20" font-weight="700">VERONA</text>
  <text x="656" y="264" fill="#11243A" font-family="Arial, sans-serif" font-size="72" font-weight="700">IDE Support</text>
  <text x="656" y="326" fill="#49637F" font-family="Arial, sans-serif" font-size="28">JSON-friendly tooling for .vomd, .vocs, and .voud</text>
  <text x="656" y="380" fill="#49637F" font-family="Arial, sans-serif" font-size="28">VS Code + JetBrains, one repository</text>
  <rect x="656" y="426" width="198" height="52" rx="26" fill="#11243A"/>
  <text x="692" y="460" fill="#FFFDF8" font-family="Arial, sans-serif" font-size="24" font-weight="700">Format As JSON</text>
  <defs>
    <linearGradient id="bg" x1="90" y1="70" x2="1166" y2="558" gradientUnits="userSpaceOnUse">
      <stop stop-color="#FFF9F1"/>
      <stop offset="1" stop-color="#F3F8FF"/>
    </linearGradient>
  </defs>
</svg>
